<svg xmlns="http://www.w3.org/2000/svg" viewBox="0 0 260 200">
  <rect width="260" height="200" rx="34" fill="#EAF7FF"/>
  <circle cx="202" cy="46" r="24" fill="#FFE4A9"/>
  <path d="M42 144c24-42 61-63 111-58 31 3 53 20 67 51" fill="#BDEDDD"/>
  <path d="M35 154c26-43 65-65 118-60 31 3 55 20 71 52" fill="none" stroke="#5A473C" stroke-width="6" stroke-linecap="round"/>
  <path d="M54 151h156" stroke="#8BC6EC" stroke-width="14" stroke-linecap="round"/>
  <rect x="80" y="72" width="58" height="80" rx="16" fill="#F6B86D" stroke="#5A473C" stroke-width="6"/>
  <path d="M96 72v-13c0-9 7-15 17-15s17 6 17 15v13" fill="none" stroke="#5A473C" stroke-width="6" stroke-linecap="round"/>
  <circle cx="95" cy="154" r="7" fill="#5A473C"/>
  <circle cx="125" cy="154" r="7" fill="#5A473C"/>
  <path d="M93 105h31" stroke="#FFF4DF" stroke-width="9" stroke-linecap="round"/>
  <path d="M166 62c14-18 31-17 43 1" fill="none" stroke="#4A9FE8" stroke-width="7" stroke-linecap="round"/>
  <path d="M188 36v74" stroke="#4A9FE8" stroke-width="5" stroke-linecap="round"/>
  <path d="M164 104h49" stroke="#4A9FE8" stroke-width="5" stroke-linecap="round"/>
</svg>
